<svg width="66" height="55" viewBox="0 0 66 55" fill="none" xmlns="http://www.w3.org/2000/svg">
<path d="M63.802 12.63L56.953 1.69995C56.341 0.719951 55.255 0.119995 54.094 0.119995H11.464C10.303 0.119995 9.21603 0.719951 8.60403 1.69995L1.75604 12.63C-1.77896 18.27 1.35503 26.12 7.96103 27.01C8.43603 27.08 8.92103 27.11 9.40603 27.11C12.53 27.11 15.294 25.74 17.194 23.62C19.093 25.74 21.868 27.11 24.981 27.11C28.104 27.11 30.869 25.74 32.768 23.62C34.668 25.74 37.443 27.11 40.556 27.11C43.679 27.11 46.444 25.74 48.343 23.62C50.253 25.74 53.018 27.11 56.13 27.11C56.626 27.11 57.101 27.08 57.576 27.01C64.203 26.13 67.347 18.28 63.802 12.63ZM56.151 30.49C55.096 30.49 54.052 30.34 53.039 30.09V40.62H12.519V30.09C11.506 30.33 10.462 30.49 9.40603 30.49C8.77303 30.49 8.13002 30.45 7.50702 30.37C6.91602 30.28 6.33603 30.15 5.77603 29.99V50.74C5.77603 52.61 7.28504 54.12 9.15304 54.12H56.426C58.294 54.12 59.802 52.61 59.802 50.74V29.99C59.233 30.16 58.663 30.29 58.072 30.37C57.428 30.45 56.795 30.49 56.151 30.49Z" fill="#ADD981"/>
</svg>
